<svg width="20" height="14" viewBox="0 0 20 14" fill="none" xmlns="http://www.w3.org/2000/svg">
<path d="M0 1C0 0.447715 0.447715 0 1 0H19C19.5523 0 20 0.447717 20 1C20 1.55229 19.5523 2 19 2L1 2C0.447715 2 0 1.55228 0 1Z" fill="#121127"/>
<path d="M0 7C0 6.44772 0.447715 6 1 6L19 6C19.5523 6 20 6.44772 20 7C20 7.55229 19.5523 8 19 8L1 8C0.447715 8 0 7.55228 0 7Z" fill="#121127"/>
<path d="M1 12C0.447715 12 0 12.4477 0 13C0 13.5523 0.447715 14 1 14L19 14C19.5523 14 20 13.5523 20 13C20 12.4477 19.5523 12 19 12L1 12Z" fill="#121127"/>
</svg>
