<svg width="16" height="16" viewBox="0 0 16 16" fill="none" xmlns="http://www.w3.org/2000/svg">
<path d="M14.2843 3.35795V3.79252C14.2843 4.52997 14.1944 5.274 14.0145 6.02462C13.8345 6.77524 13.5711 7.50611 13.2241 8.21722C12.8771 8.92833 12.4337 9.59335 11.894 10.2123C11.3542 10.8312 10.7502 11.3711 10.0819 11.832C9.41365 12.2929 8.649 12.6551 7.78795 12.9185C6.92691 13.1818 6.00161 13.3135 5.01205 13.3135C4.08675 13.3135 3.20643 13.1818 2.37108 12.9185C1.53574 12.6551 0.745381 12.2864 0 11.8123C0.244177 11.8518 0.501205 11.8715 0.771084 11.8715C1.54217 11.8715 2.2747 11.7399 2.96867 11.4765C3.66265 11.2131 4.28594 10.8641 4.83855 10.4296C4.11888 10.4164 3.48273 10.1925 2.93012 9.75796C2.37751 9.32339 1.99197 8.77031 1.77349 8.0987C1.97912 8.13821 2.18474 8.15796 2.39036 8.15796C2.67309 8.15796 2.96225 8.12504 3.25783 8.05919C2.88514 7.98018 2.53815 7.84191 2.21687 7.64438C1.89558 7.44685 1.61928 7.20323 1.38795 6.91351C1.15663 6.6238 0.976707 6.29458 0.848193 5.92586C0.719679 5.55713 0.648996 5.16865 0.636145 4.76042V4.72092C1.0988 4.99746 1.59357 5.14232 2.12048 5.15549C1.67068 4.8526 1.31727 4.45754 1.06024 3.9703C0.803213 3.48305 0.668273 2.94972 0.655422 2.37029C0.655422 2.06741 0.693976 1.77112 0.771084 1.4814C0.848193 1.19169 0.95743 0.921731 1.0988 0.671525C1.90843 1.69869 2.89157 2.52173 4.04819 3.14067C5.20482 3.7596 6.46426 4.10198 7.82651 4.16783C7.8008 4.04931 7.78153 3.92421 7.76867 3.79252C7.75582 3.66083 7.7494 3.53573 7.7494 3.41721C7.7494 2.9563 7.83936 2.52173 8.01928 2.1135C8.1992 1.70527 8.43052 1.34972 8.71325 1.04683C8.99598 0.743953 9.34297 0.500331 9.75422 0.315969C10.1655 0.131606 10.5831 0.0460095 11.0072 0.0591782C11.4827 0.0591782 11.9261 0.151359 12.3373 0.335722C12.7486 0.520084 13.102 0.783459 13.3976 1.12585C14.1301 0.967822 14.8241 0.697863 15.4795 0.315969C15.351 0.697863 15.1647 1.04683 14.9205 1.36288C14.6763 1.67893 14.3807 1.94231 14.0337 2.15301C14.6892 2.074 15.3124 1.9028 15.9036 1.63943C15.4667 2.3242 14.9269 2.89704 14.2843 3.35795Z" fill="#4C5059"/>
</svg>
